<svg xmlns="http://www.w3.org/2000/svg" viewBox="0 0 512 512" role="img" aria-label="MVOG Lab orbital brain icon">
  <defs>
    <radialGradient id="bg" cx="50%" cy="45%" r="70%">
      <stop offset="0" stop-color="#11261f"/>
      <stop offset="0.45" stop-color="#07120f"/>
      <stop offset="1" stop-color="#020504"/>
    </radialGradient>
    <radialGradient id="core" cx="42%" cy="35%" r="72%">
      <stop offset="0" stop-color="#f7ff82"/>
      <stop offset="0.35" stop-color="#48f2a5"/>
      <stop offset="0.78" stop-color="#35d2d9"/>
      <stop offset="1" stop-color="#167b7e"/>
    </radialGradient>
    <filter id="softGlow" x="-60%" y="-60%" width="220%" height="220%" color-interpolation-filters="sRGB">
      <feGaussianBlur stdDeviation="10" result="blur"/>
      <feColorMatrix in="blur" type="matrix" values="0 0 0 0 0.18 0 0 0 0 0.96 0 0 0 0 0.62 0 0 0 0.68 0"/>
      <feBlend in="SourceGraphic"/>
    </filter>
  </defs>
  <rect width="512" height="512" rx="108" fill="url(#bg)"/>
  <circle cx="256" cy="256" r="176" fill="#48f2a5" opacity="0.045"/>
  <circle cx="122" cy="120" r="62" fill="#48f2a5" opacity="0.12"/>
  <circle cx="394" cy="398" r="82" fill="#35d2d9" opacity="0.10"/>

  <g fill="none" stroke-linecap="round">
    <ellipse cx="256" cy="256" rx="180" ry="82" stroke="#48f2a5" stroke-width="5" opacity="0.52" transform="rotate(-18 256 256)"/>
    <ellipse cx="256" cy="256" rx="158" ry="68" stroke="#35d2d9" stroke-width="4" opacity="0.45" transform="rotate(24 256 256)"/>
    <ellipse cx="256" cy="256" rx="116" ry="178" stroke="#9b8cff" stroke-width="3" opacity="0.28" transform="rotate(-36 256 256)"/>
  </g>

  <g filter="url(#softGlow)">
    <circle cx="256" cy="256" r="76" fill="url(#core)"/>
    <path d="M213 244c6-25 28-43 53-43 27 0 50 20 54 47M196 278c22-14 51-12 70 6 17 16 42 18 62 4M231 215c-7 19-2 38 13 51M281 206c-14 23-13 49 2 75M224 310c28 12 59 5 78-18" fill="none" stroke="#05100b" stroke-width="10" stroke-linecap="round" opacity="0.58"/>
    <circle cx="256" cy="256" r="20" fill="#f7ff82" opacity="0.9"/>
  </g>

  <g>
    <circle cx="111" cy="290" r="10" fill="#48f2a5"/>
    <circle cx="397" cy="216" r="9" fill="#35d2d9"/>
    <circle cx="337" cy="108" r="7" fill="#f7ff82"/>
    <circle cx="176" cy="386" r="8" fill="#9b8cff"/>
    <g fill="#ffffff" opacity="0.84">
      <circle cx="256" cy="74" r="3"/>
      <circle cx="430" cy="314" r="3"/>
      <circle cx="90" cy="184" r="3"/>
    </g>
  </g>
</svg>
