<svg xmlns="http://www.w3.org/2000/svg" viewBox="0 0 64 64">
  <defs>
    <radialGradient id="bg" cx="50%" cy="42%" r="70%">
      <stop offset="0" stop-color="#1fe9ff"/>
      <stop offset="0.42" stop-color="#0968d8"/>
      <stop offset="1" stop-color="#05133d"/>
    </radialGradient>
    <linearGradient id="ring" x1="8" y1="10" x2="56" y2="54">
      <stop stop-color="#ffffff"/>
      <stop offset="0.42" stop-color="#8ff4ff"/>
      <stop offset="1" stop-color="#6aa8ff"/>
    </linearGradient>
    <filter id="glow" x="-50%" y="-50%" width="200%" height="200%">
      <feGaussianBlur stdDeviation="2.2" result="blur"/>
      <feMerge><feMergeNode in="blur"/><feMergeNode in="SourceGraphic"/></feMerge>
    </filter>
  </defs>
  <rect width="64" height="64" rx="16" fill="url(#bg)"/>
  <circle cx="32" cy="32" r="8" fill="#eaffff" filter="url(#glow)"/>
  <ellipse cx="32" cy="32" rx="24" ry="9" fill="none" stroke="url(#ring)" stroke-width="2.2" opacity="0.95" transform="rotate(-18 32 32)"/>
  <ellipse cx="32" cy="32" rx="24" ry="9" fill="none" stroke="#74e8ff" stroke-width="1.8" opacity="0.72" transform="rotate(52 32 32)"/>
  <ellipse cx="32" cy="32" rx="19" ry="28" fill="none" stroke="#ffffff" stroke-width="1.4" opacity="0.42" transform="rotate(30 32 32)"/>
  <circle cx="48" cy="25" r="3.8" fill="#ffffff" filter="url(#glow)"/>
  <circle cx="17" cy="36" r="2.8" fill="#bdf7ff" filter="url(#glow)"/>
  <path d="M19 48h5l3-14 5 12h2l5-12 3 14h5l-5-25h-5l-4 12-4-12h-5l-5 25Z" fill="#ffffff" opacity="0.92"/>
</svg>
